HIERARCHY
ROOT Hips
{
  OFFSET -35.2597 29.1586 114.425
  CHANNELS 6 Xposition Yposition Zposition Zrotation Xrotation Yrotation
  JOINT LeftUpLeg
  {
    OFFSET 8.64259 1.95398 -2.38835
    CHANNELS 3 Zrotation Xrotation Yrotation
    JOINT LeftLeg
    {
      OFFSET 43.7702 0 0
      CHANNELS 3 Zrotation Xrotation Yrotation
      JOINT LeftFoot
      {
        OFFSET 40.6238 0 0
        CHANNELS 3 Zrotation Xrotation Yrotation
        JOINT LeftToeBase
        {
          OFFSET 12.7242 0 0
          CHANNELS 3 Zrotation Xrotation Yrotation
          End Site
          {
            OFFSET 0 0 0
          }
        }
      }
    }
  }
  JOINT RightUpLeg
  {
    OFFSET -8.2249 1.95398 -2.59336
    CHANNELS 3 Zrotation Xrotation Yrotation
    JOINT RightLeg
    {
      OFFSET 43.5653 0 0
      CHANNELS 3 Zrotation Xrotation Yrotation
      JOINT RightFoot
      {
        OFFSET 40.6238 0 0
        CHANNELS 3 Zrotation Xrotation Yrotation
        JOINT RightToeBase
        {
          OFFSET 12.7242 0 0
          CHANNELS 3 Zrotation Xrotation Yrotation
          End Site
          {
            OFFSET 0 0 0
          }
        }
      }
    }
  }
  JOINT Spine
  {
    OFFSET 0.165834 0.87714 6.61349
    CHANNELS 3 Zrotation Xrotation Yrotation
    JOINT Spine1
    {
      OFFSET 7.38963 1.71661e-005 0
      CHANNELS 3 Zrotation Xrotation Yrotation
      JOINT Spine2
      {
        OFFSET 11.9445 1.14441e-005 0
        CHANNELS 3 Zrotation Xrotation Yrotation
        JOINT Spine3
        {
          OFFSET 14.7254 4.19617e-005 0
          CHANNELS 3 Zrotation Xrotation Yrotation
          JOINT Spine4
          {
            OFFSET 10.9679 0 0
            CHANNELS 3 Zrotation Xrotation Yrotation
            JOINT RightShoulder
            {
              OFFSET 2.46616 -1.6653 3.69651
              CHANNELS 3 Zrotation Xrotation Yrotation
              JOINT RightArm
              {
                OFFSET 13.0012 0 0
                CHANNELS 3 Zrotation Xrotation Yrotation
                JOINT RightForeArm
                {
                  OFFSET 28.7848 1.62311e-005 0
                  CHANNELS 3 Zrotation Xrotation Yrotation
                  JOINT RightHand
                  {
                    OFFSET 26.5688 1.62095e-005 0
                    CHANNELS 3 Zrotation Xrotation Yrotation
                    End Site
                    {
                      OFFSET 0 0 0
                    }
                  }
                }
              }
            }
            JOINT LeftShoulder
            {
              OFFSET 2.38034 -1.29275 -3.7523
              CHANNELS 3 Zrotation Xrotation Yrotation
              JOINT LeftArm
              {
                OFFSET 16.3182 6.07031e-005 0
                CHANNELS 3 Zrotation Xrotation Yrotation
                JOINT LeftForeArm
                {
                  OFFSET 27.0901 0 0
                  CHANNELS 3 Zrotation Xrotation Yrotation
                  JOINT LeftHand
                  {
                    OFFSET 24.5451 1.51738e-005 0
                    CHANNELS 3 Zrotation Xrotation Yrotation
                    End Site
                    {
                      OFFSET 0 0 0
                    }
                  }
                }
              }
            }
            JOINT Neck
            {
              OFFSET 5.0226 -0.0266342 0
              CHANNELS 3 Zrotation Xrotation Yrotation
              JOINT Head
              {
                OFFSET 6.69364 2.86102e-005 0
                CHANNELS 3 Zrotation Xrotation Yrotation
                End Site
                {
                  OFFSET 0 0 0
                }
              }
            }
          }
        }
      }
    }
  }
}
MOTION
Frames:	12
Frame Time:	0.0416667
16.7307 99.3164 -52.0753 -130.214 -78.83 -132.573 -174.977 0.242164 83.2484 -22.0318 -1.36348 -2.65066 75.3444 8.75887 -1.71996 15.0147 -12.783 7.97618 177.256 16.8493 89.2907 -46.7794 -7.30698 -3.15365 67.6959 -5.26935 -2.12722 21.763 1.8225 3.28358 -0.0170762 7.9034 -89.7781 11.0677 0.0689625 0.434929 -0.603286 0.0880396 0.431456 -23.138 -0.0649436 0.435542 -3.12539 -0.0649347 0.435544 88.9072 -34.0639 -107.33 44.5349 7.57121 -2.62032 -5.22107 -40.8333 -5.40415 -21.0407 2.97747 -21.6585 -86.2739 -55.7319 85.1442 -22.6379 -13.3473 -28.0627 2.70603 17.8238 -3.75741 3.50065 -0.455823 -11.616 1.36824 3.19719 -1.41862 -4.88854 3.39486 -0.652093 
16.0441 98.6675 -44.9949 -148.145 -82.3843 -150.663 -175.119 -3.89135 83.6412 -21.5896 2.95909 -1.87023 79.1262 11.2388 -1.57922 15.1657 -13.128 8.59805 176.263 18.9334 89.6882 -24.2948 -4.76408 -0.48875 62.5938 -2.44408 -1.60594 23.8684 1.012 3.17419 -0.641527 7.9326 -89.8365 11.0113 -1.20126 0.440376 -0.659128 -1.18071 0.492819 -23.1987 -1.27808 0.0589336 -3.18606 -1.27807 0.0589324 89.4054 -35.4262 -105.928 42.0727 9.73871 2.77798 -5.20705 -40.6211 -5.39616 -20.2614 2.77689 -21.1866 -86.6471 -51.6516 84.0147 -25.7176 -10.3086 -39.6937 2.70923 18.8418 -3.7664 5.78526 -0.895806 -15.6265 1.33597 3.2814 -3.64512 -4.64038 3.74124 1.64289 
15.4003 97.1778 -37.1235 178.135 -83.546 174.297 -174.758 -9.72029 84.0207 -20.8653 6.73089 -1.63939 83.6435 14.3449 -2.69058 17.2152 -13.3844 10.9681 175.293 19.2594 88.3704 -6.19354 0.60127 1.17769 62.0088 -2.00269 -1.55742 24.6441 -0.112916 5.6183 -1.08399 7.98966 -89.7356 10.902 -2.03585 0.717934 -0.767602 -2.00228 0.80686 -23.3155 -2.15746 0.0726074 -3.30283 -2.15746 0.0726133 89.7965 -36.8632 -104.739 41.156 11.2059 8.42694 -4.93003 -36.1425 -5.24785 -20.0743 2.38443 -19.091 -87.3855 -49.9474 82.6398 -26.1214 -8.87923 -49.301 2.88101 24.2874 -3.94119 6.74746 -1.18921 -18.1065 0.903442 3.13279 -5.18963 -4.09554 3.7918 2.58577 
14.8048 95.152 -28.5485 144.033 -82.212 138.876 -174.075 -15.307 85.2577 -20.8708 11.0113 -1.12888 86.9899 17.1849 -3.4955 20.677 -12.7894 13.7849 174.745 22.0684 86.3605 -5.32162 9.33257 1.45732 64.3822 -2.30283 -0.740281 26.7789 -0.349055 3.79251 -1.38415 7.9977 -89.7364 10.8893 -2.63392 0.77203 -0.779307 -2.59739 0.887259 -23.3359 -2.7441 -0.0558588 -3.3233 -2.74409 -0.0558516 90.4323 -36.9013 -103.582 40.7291 12.2298 13.0722 -4.77758 -33.4581 -5.17671 -15.315 1.57834 -17.4538 -88.3207 -50.5877 81.35 -27.1197 -7.076 -54.9165 3.00369 27.7406 -4.06715 5.94756 -1.09741 -18.2293 1.9128 2.35163 -5.32589 -4.46447 3.06543 3.10946 
14.527 94.2505 -19.5717 123.563 -79.6242 118.126 -173.507 -16.7046 86.9781 -25.6309 13.6332 0.200025 81.2885 15.4106 0.555151 32.554 -5.30559 15.1462 172.128 25.857 84.2491 -15.6772 8.04225 3.50495 58.9898 2.61666 -0.179227 22.163 2.42752 1.26199 -1.46563 8.03659 -89.9595 10.8085 -2.89964 0.351035 -0.859274 -2.88137 0.478408 -23.42 -2.87098 -0.537403 -3.40737 -2.87097 -0.537402 90.1184 -36.4634 -104.285 40.5325 12.7347 15.5206 -4.57049 -29.5432 -5.08727 -11.8242 0.798054 -13.4285 -89.2247 -51.0231 80.0945 -29.666 -4.33131 -55.2941 3.19779 32.6153 -4.26548 3.80569 -0.627299 -14.5163 5.38894 1.38412 -3.00457 -4.73325 1.83155 2.60856 
14.1338 93.5913 -11.6777 116.08 -79.5053 111.139 -170.781 -8.05925 90.1515 -43.7375 15.3999 -0.225323 68.0401 6.2995 3.47797 40.1561 0.678836 12.8795 169.564 32.0146 83.6419 -31.7272 2.63984 6.55141 60.0474 2.85874 -0.76177 10.0979 6.43879 3.87319 -1.14775 8.31785 -90.2498 10.2366 -2.40092 -0.290936 -1.43218 -2.41139 -0.184934 -23.9826 -2.20243 -0.999395 -3.97 -2.20243 -0.999395 89.2487 -34.7343 -106.457 39.9763 12.1256 11.5814 -4.59585 -30.0438 -5.09859 -10.6213 0.541356 -11.584 -89.8502 -48.8626 78.7078 -31.4292 -2.65632 -54.3865 3.64662 41.5105 -4.72134 -3.43137 -0.0541744 -8.30181 11.0491 0.636371 -0.799321 -3.48989 0.76041 2.26701 
13.4472 92.6954 -7.15426 109.535 -79.8882 105.587 -164.415 11.3722 95.5213 -68.4132 13.4886 -1.6639 57.7909 -1.41231 1.5301 6.08337 -13.4652 1.14408 165.699 35.1672 85.5571 -40.7162 -0.927191 7.98533 64.0195 -1.2665 -3.18563 12.5717 4.88589 4.92124 -0.752549 8.98898 -90.491 8.889 -1.71988 -0.855779 -2.78104 -1.75588 -0.779254 -25.3205 -1.38318 -1.33316 -5.30782 -1.38319 -1.33315 87.8953 -32.8636 -109.691 36.0865 11.2856 -0.176448 -5.06042 -38.3208 -5.31722 -13.3281 0.58293 -10.3811 -90.1405 -46.4621 77.7233 -30.9281 -2.05319 -59.1238 4.78746 55.461 -5.87141 -15.133 -0.0699367 -4.33246 17.9577 -0.152562 0.164382 -2.00646 -0.209823 1.59358 
13.3022 91.9108 -4.17395 84.3326 -81.3612 79.4614 -155.31 28.8658 90.179 -75.908 10.165 -4.82701 66.8908 5.3903 3.13011 11.5011 -11.3323 2.84696 162.008 40.3683 85.842 -45.1787 -5.0127 9.89873 67.229 -4.14841 -4.27159 13.295 4.2259 5.71229 -0.359289 9.44389 -90.5669 7.98051 -0.965135 -1.06353 -3.69052 -1.01101 -1.02004 -26.2232 -0.600928 -1.30439 -6.21052 -0.600926 -1.30439 88.7938 -29.5728 -109.298 32.5384 10.2792 -16.7804 -5.27688 -41.6618 -5.43459 -24.1897 0.212787 -6.81459 -90.6928 -45.8352 76.7127 -31.698 0.26076 -64.1335 6.53727 66.1451 -7.6321 -1.65644 -0.0165647 -1.27299 21.8585 -0.399327 2.12349 1.68987 -1.03646 1.50137 
13.4871 90.4645 -1.79995 41.9512 -81.6498 35.9331 -145.836 41.2727 85.6356 -69.3177 5.95632 -10.6375 70.4226 7.62346 1.93148 14.8439 -9.57857 3.28149 157.39 47.3776 87.4417 -49.6071 -11.0325 12.0663 69.5868 -6.36029 -4.76019 13.3567 3.63257 6.96319 0.160697 9.70297 -90.3779 7.46837 0.15723 -0.753214 -4.20279 0.123929 -0.759402 -26.7366 0.376325 -0.67114 -6.72389 0.376328 -0.671148 90.7833 -23.0676 -108.026 34.8226 6.22928 -31.8931 -5.28642 -41.7835 -5.44225 -29.9429 -0.384301 -3.68428 -90.5148 -44.3033 76.6096 -32.8759 2.86116 -67.4499 7.87041 70.7358 -8.96652 10.33 0.893061 4.387 23.8833 -0.488797 1.83526 3.60127 -0.99612 2.20048 
14.2389 88.3248 0.484754 16.1398 -79.7721 10.3143 -145.594 50.4153 88.267 -58.884 5.46754 -14.1852 70.2277 7.15623 1.07866 14.0853 -11.2289 4.9543 149.557 53.3602 91.6026 -55.8101 -17.6588 13.7578 69.8999 -7.21017 -4.81824 14.7937 2.26027 8.85785 0.417993 10.0685 -90.3247 6.73838 0.6963 -0.667089 -4.93257 0.666274 -0.697096 -27.4686 0.864602 -0.426977 -7.45592 0.864594 -0.426979 91.1772 -20.166 -108.456 34.9851 3.7237 -42.8425 -5.76465 -48.1484 -5.74404 -26.9115 -0.826493 -1.66998 -91.4939 -44.5633 75.1256 -32.4524 2.98493 -69.4944 9.44573 74.2973 -10.5444 11.7734 1.40978 7.6777 27.1247 -0.168082 1.67682 4.24605 -0.685611 1.89755 
15.8035 84.5822 2.7748 2.78739 -77.2902 -3.40394 -146.927 58.4006 92.4221 -55.6884 9.88233 -14.1863 65.8603 4.16312 1.19859 9.76247 -13.1414 3.77616 137.867 60.5961 98.8131 -65.7645 -25.6996 13.1209 70.7343 -8.67853 -5.81345 15.074 1.5848 10.2047 0.559636 10.6229 -90.2192 5.63032 1.02674 -0.457609 -6.04032 1.00563 -0.502348 -28.5787 1.11681 -0.127829 -8.56607 1.1168 -0.127831 90.7795 -20.441 -109.244 34.8222 1.53394 -51.97 -6.14086 -52.289 -6.00976 -24.7303 -1.60677 2.27961 -90.6693 -40.0469 75.2351 -33.2004 5.48767 -73.2349 16.0337 81.116 -17.1342 11.2143 1.52748 9.01167 34.7889 0.0581195 2.42314 3.45732 -0.93974 1.30645 
18.526 78.6778 4.88611 -9.25595 -75.5497 -15.1805 -135.745 67.2736 87.0938 -66.9018 20.2237 -11.8896 62.9517 2.6109 3.20054 16.2104 -9.7488 4.68734 118.887 67.5655 113.949 -80.143 -32.2645 9.30867 71.2542 -9.91479 -7.15667 15.9946 0.142175 12.9463 0.685647 10.7663 -90.0404 5.34144 1.35324 -0.107697 -6.32881 1.34719 -0.167159 -28.8694 1.32303 0.304063 -8.85671 1.32303 0.304059 86.8727 -25.497 -115.153 34.0496 2.57476 -51.0719 -8.23344 -66.388 -7.74529 -26.5162 -1.92704 3.19963 -91.4281 -42.4373 74.6508 -33.1982 5.47443 -73.0074 44.7255 86.67 -45.834 7.0438 0.829968 7.23305 38.5257 0.681512 2.03236 2.6612 -0.300965 0.388385 
